<svg xmlns="http://www.w3.org/2000/svg" viewBox="0 0 687.6 535.2" xmlns:v="https://vecta.io/nano"><path d="M687.6 535.2H0V0h687.6v535.2zM77.7 457.5h532.2V77.7H77.7v379.8z" fill="#1e1e1e"/><path d="M544.4 277.61l-80.12 80.12c-5.54 5.54-14.49 5.54-19.97 0L431 344.42c-5.54-5.54-5.54-14.49 0-19.97l56.79-56.79L431 210.87c-5.54-5.54-5.54-14.49 0-19.97l13.25-13.43c5.54-5.54 14.49-5.54 19.97 0l80.12 80.12c5.6 5.53 5.6 14.49.06 20.02zm-400.95-20.02l80.12-80.12c5.54-5.54 14.49-5.54 19.97 0l13.31 13.31c5.54 5.54 5.54 14.49 0 19.97l-56.79 56.79 56.79 56.79c5.54 5.54 5.54 14.49 0 19.97l-13.25 13.43c-5.54 5.54-14.49 5.54-19.97 0l-80.12-80.12c-5.6-5.53-5.6-14.49-.06-20.02z"/></svg>