<svg xmlns="http://www.w3.org/2000/svg" viewBox="0 0 800 400" xmlns:v="https://vecta.io/nano"><path d="M0 0h800v400H0z" fill="#f1f0f0"/><path d="M473.8 275.5H326.2c-1.4 0-2.4-1.2-2.4-3v-6c0-1.8 1-3 2.4-3h147.5c1.4 0 2.4 1.2 2.4 3v6c0 1.5-.9 3-2.3 3zm19.6 15.6H306.6c-1.8 0-3-1.2-3-3v-1.5c0-1.8 1.2-3 3-3h186.8c1.8 0 3 1.2 3 3v1.5c0 1.5-1.2 3-3 3zm0 12.1H306.6c-1.8 0-3-1.2-3-3v-1.5c0-1.8 1.2-3 3-3h186.8c1.8 0 3 1.2 3 3v1.5c0 1.5-1.2 3-3 3zm-8.1-207.9H314.7c-6.9 0-12.4 5.4-12.4 12.4v127.1c0 6.9 5.4 12.4 12.4 12.4h170.5c6.9 0 12.4-5.4 12.4-12.4V107.7c0-6.7-5.4-12.4-12.3-12.4zm0 12.4v90.1l-24.4-22.3c-3.6-3.3-9.3-3.3-13 .3l-24.7 25-48.5-58.1c-3.6-4.5-10.5-4.5-14.2 0l-45.8 52.7v-87.7h170.6zm-52.8 32.5c0-9.3 7.5-17.2 17.2-17.2 9.3 0 17.2 7.5 17.2 17.2 0 9.6-7.5 17.2-17.2 17.2-9.3 0-17.2-7.6-17.2-17.2zM255.9 277H108.4c-1.4 0-2.4-1.2-2.4-3v-6c0-1.8 1-3 2.4-3h147.5c1.4 0 2.4 1.2 2.4 3v6c0 1.5-1 3-2.4 3zm19.6 15.6H88.7c-1.8 0-3-1.2-3-3v-1.5c0-1.8 1.2-3 3-3h186.8c1.8 0 3 1.2 3 3v1.5c0 1.5-1.2 3-3 3zm0 12.1H88.7c-1.8 0-3-1.2-3-3v-1.5c0-1.8 1.2-3 3-3h186.8c1.8 0 3 1.2 3 3v1.5c0 1.5-1.2 3-3 3zm-8.1-207.9H96.9c-6.9 0-12.4 5.4-12.4 12.4v127.1c0 6.9 5.4 12.4 12.4 12.4h170.5c6.9 0 12.4-5.4 12.4-12.4V109.2c-.1-6.7-5.5-12.4-12.4-12.4zm0 12.4v90.1L243 177c-3.6-3.3-9.3-3.3-13 .3l-24.7 25-48.5-58.1c-3.6-4.5-10.5-4.5-14.2 0l-45.8 52.7v-87.7h170.6zm-52.8 32.5c0-9.3 7.5-17.2 17.2-17.2 9.3 0 17.2 7.5 17.2 17.2 0 9.6-7.5 17.2-17.2 17.2-9.3 0-17.2-7.6-17.2-17.2zm477 135.3H544.1c-1.4 0-2.4-1.2-2.4-3v-6c0-1.8 1-3 2.4-3h147.5c1.4 0 2.4 1.2 2.4 3v6c0 1.5-.9 3-2.4 3zm19.7 15.6H524.5c-1.8 0-3-1.2-3-3v-1.5c0-1.8 1.2-3 3-3h186.8c1.8 0 3 1.2 3 3v1.5c0 1.5-1.2 3-3 3zm0 12.1H524.5c-1.8 0-3-1.2-3-3v-1.5c0-1.8 1.2-3 3-3h186.8c1.8 0 3 1.2 3 3v1.5c0 1.5-1.2 3-3 3zm-8.2-207.9H532.6c-6.9 0-12.4 5.4-12.4 12.4v127.1c0 6.9 5.4 12.4 12.4 12.4h170.5c6.9 0 12.4-5.4 12.4-12.4V109.2c0-6.7-5.4-12.4-12.4-12.4zm0 12.4v90.1L678.7 177c-3.6-3.3-9.3-3.3-13 .3l-24.7 25-48.5-58.1c-3.6-4.5-10.5-4.5-14.2 0l-45.8 52.7v-87.7h170.6zm-52.7 32.5c0-9.3 7.5-17.2 17.2-17.2 9.3 0 17.2 7.5 17.2 17.2 0 9.6-7.5 17.2-17.2 17.2-9.3 0-17.2-7.6-17.2-17.2z" fill="#767676"/></svg>