<svg width="240" height="197" viewBox="0 0 240 197" fill="none" xmlns="http://www.w3.org/2000/svg">
<rect width="239.696" height="196.34" rx="4" fill="white"/>
<path d="M39 21.2V18.6H38.8C38.8 17.9 38.6 17.4 38.1 17.1C37.6 16.7 37.1 16.5 36.4 16.5C35.9 16.5 35.5 16.6 35.2 16.8C34.8 17 34.5 17.2 34.3 17.5C34.1 17.8 34 18.1 34 18.5H35.3C35.3 18.3 35.4 18 35.6 17.9C35.8 17.8 36.1 17.7 36.4 17.7C36.8 17.7 37.1 17.8 37.2 18C37.3 18.2 37.5 18.5 37.5 18.8V19.2H36.6C35.7 19.2 35 19.4 34.5 19.7C34 20 33.8 20.5001 33.8 21.1C33.8 21.6 34 22.1 34.4 22.3C34.8 22.6 35.3 22.8 35.9 22.8C36.5 22.8 37.1 22.6 37.5 22.1C37.5 22.4001 37.6 22.6 37.7 22.7H39.1V22.6C39 22.3 39 21.8 39 21.2ZM37.5 21C37.4 21.2 37.2 21.4001 36.9 21.6C36.6 21.8 36.4 21.8 36.1 21.8C35.8 21.8 35.6 21.7 35.4 21.6C35.2 21.5001 35.1 21.2 35.1 20.9C35.1 20.6 35.2 20.3 35.5 20.1C35.8 19.9001 36.2 19.8 36.6 19.8H37.4V21H37.5ZM31.1 16.6V22.6H32.4V16.6H31.1ZM32.5 14.5C32.4 14.4 32.1 14.3 31.9 14.3C31.6 14.3 31.4 14.4 31.3 14.5C31.2 14.6 31.1 14.8 31.1 15C31.1 15.2 31.2 15.4 31.3 15.5C31.4 15.6 31.6 15.7 31.9 15.7C32.2 15.7 32.4 15.6 32.5 15.5C32.6 15.4 32.7 15.2 32.7 15C32.7 14.8 32.6 14.6 32.5 14.5ZM29.7 16.4C29.1 16.5 28.7 16.8 28.4 17.4V16.7H27V22.8H28.4V18.6C28.6 18.1 29.1 17.8 29.6 17.8H30.2V16.6C30.1 16.4 29.9 16.4 29.7 16.4ZM25.7 21.3V18.6H25.6C25.6 17.9 25.4 17.4 24.9 17.1C24.4 16.7 23.9 16.5 23.2 16.5C22.7 16.5 22.3 16.6 22 16.8C21.6 17 21.3 17.2 21.1 17.5C20.9 17.8 20.8 18.1 20.8 18.5H22.1C22.1 18.3 22.2 18 22.4 17.9C22.6 17.8 22.9 17.7 23.2 17.7C23.6 17.7 23.9 17.8 24 18C24.1 18.2 24.3 18.5 24.3 18.8V19.2H23.4C22.5 19.2 21.8 19.4 21.3 19.7C20.8 20 20.5 20.6 20.5 21.2C20.5 21.7 20.7 22.2 21.1 22.4C21.5 22.7 22 22.9 22.6 22.9C23.2 22.9 23.8 22.7 24.2 22.2C24.2 22.5 24.3 22.7 24.4 22.8H25.8V22.7C25.7 22.4 25.7 21.9 25.7 21.3ZM24.2 21C24.1 21.2 23.9 21.4001 23.6 21.6C23.3 21.8 23.1 21.8 22.8 21.8C22.5 21.8 22.3 21.7 22.1 21.6C21.9 21.5001 21.8 21.2 21.8 20.9C21.8 20.6 21.9 20.3 22.2 20.1C22.5 19.9001 22.9 19.8 23.3 19.8H24.1V21H24.2ZM18.7 14.6L16.6 20.9L14.5 14.6H13L16 22.8H17.3L20.3 14.6H18.7Z" fill="#16222D"/>
<path d="M44.9 17.3C44.4 16.7 43.9 16.5 43.2 16.5C42.6 16.5 42 16.7 41.6 17.2V14H40.3V22.6H41.5L41.6 21.9C42 22.4 42.6 22.7 43.2 22.7C44 22.7 44.5 22.4 44.9 21.8C45.3 21.2 45.6 20.5 45.6 19.6V19.5C45.6 18.6 45.4 17.8 44.9 17.3ZM44.4 19.8C44.3 20.5 44.2 21 43.9 21.2C43.6 21.5 43.3 21.7 42.9 21.7C42.3 21.7 41.8 21.4 41.7 20.9V18.4C41.9 17.9 42.4 17.6 42.9 17.6C43.4 17.6 43.7 17.8 44 18.1C44.3 18.4 44.4 19 44.4 19.5V19.8Z" fill="#16222D"/>
<path d="M66.5 14.6L65.3 20.7L63.8 14.6H62.6L61.1 20.7L59.9 14.6H58.5L60.4 22.8H61.7L63.3 16.8L64.8 22.8H66.1L68 14.6H66.5ZM54.7 19.6C54.7 18.6 54.5 17.9 54 17.4C53.5 16.9 53 16.5 52.2 16.5C51.7 16.5 51.2 16.6 50.8 16.9C50.3 17.2 50 17.6 49.8 18.1C49.6 18.6 49.4 19.2 49.4 19.7V19.9C49.4 20.8 49.7 21.5 50.2 22.1C50.7 22.7 51.4 23 52.3 23C52.8 23 53.3 22.9 53.6 22.7C53.9 22.5 54.4 22.2 54.6 21.8L53.9 21C53.5 21.5 53 21.8 52.4 21.8C51.9 21.8 51.5 21.6 51.3 21.3C51 21 50.8 20.6 50.8 20.1H54.7V19.6ZM50.9 19.1C51 18.6 51.1 18.2 51.4 18C51.7 17.8 52 17.6 52.3 17.6C52.7 17.6 53 17.7 53.2 18C53.4 18.3 53.5 18.6 53.6 19.1H50.9ZM46.9 14.1V22.7H48.3V14.1H46.9Z" fill="#16222D"/>
<path d="M69.6001 14.3C69.3001 14.3 69.1001 14.4 69.0001 14.5C68.9001 14.6 68.8 14.8 68.8 15C68.8 15.2 68.9001 15.4 69.0001 15.5C69.1001 15.6 69.3001 15.7 69.6001 15.7C69.9001 15.7 70.1001 15.6 70.2001 15.5C70.3001 15.4 70.4001 15.2 70.4001 15C70.4001 14.8 70.3001 14.6 70.2001 14.5C70.1001 14.4 69.9001 14.3 69.6001 14.3Z" fill="#16222D"/>
<path d="M81.1 17.7V16.5H80.1V15.2H78.8V16.6H77.8V17.7H78.8V21.2C78.8 22.4 79.3 22.9 80.3 22.9C80.6 22.9 80.9 22.9 81.2 22.8V21.7C81 21.7 80.9 21.8 80.7 21.8C80.5 21.7 80.3 21.7 80.2 21.6C80.1 21.5 80.1 21.3 80.1 21.1V17.7H81.1ZM75.6 14.1V17.2H75.5C75.1 16.7 74.5 16.5 74 16.5C73.2 16.5 72.7 16.8 72.3 17.4C71.9 18 71.6 18.7 71.6 19.7C71.6 20.7 71.8 21.4 72.3 22C72.8 22.6 73.3 22.9 74 22.9C74.7 22.9 75.2 22.6 75.6 22.1L75.7 22.8H76.9V14.2H75.6V14.1ZM75.5 21C75.2 21.5 74.8 21.8 74.3 21.8C73.8 21.8 73.5 21.6 73.3 21.3C73 21 72.9 20.4 72.9 19.9C72.9 19.2 73 18.7 73.3 18.4C73.6 18.1 73.9 17.9 74.3 17.9C74.9 17.9 75.3 18.2 75.5 18.7V21ZM68.9 16.6V22.6H70.3V16.6H68.9Z" fill="#16222D"/>
<path d="M85.2 16.5C84.5 16.5 84 16.8 83.5 17.3V14H82.1V22.6H83.4V18.3C83.7 17.8 84.1 17.5 84.6 17.5C85 17.5 85.2 17.6 85.4 17.8C85.6 18 85.7 18.3 85.7 18.7V22.6H87.1V18.7C87.2 17.3 86.5 16.5 85.2 16.5Z" fill="#16222D"/>
<path d="M101.8 13H143C144.1 13 144.9 13.9 144.9 14.9V23.7C144.9 24.8 144 25.6 143 25.6H101.8C100.7 25.6 99.9 24.7 99.9 23.7V14.9C99.9 13.8 100.7 13 101.8 13Z" fill="#ED6F6F"/>
<path d="M121 17.5V21.3H121.7V17.5H121ZM138.2 18V17.4H135.7V21.2H138.2V20.7H136.4V19.5H137.9V19H136.4V17.9H138.2V18ZM125.1 20.1C125 20 125 19.9 124.9 19.8C124.8 19.7 124.7 19.6 124.5 19.5C124.3 19.4 124.1 19.3 123.9 19.3C123.8 19.3 123.6 19.2 123.5 19.2C123.4 19.2 123.3 19.1 123.2 19.1L123 18.9C123 18.8 122.9 18.8 122.9 18.7C122.9 18.6 122.9 18.5 123 18.4C123.1 18.3 123.1 18.2 123.2 18.2C123.3 18.2 123.4 18.1 123.6 18.1C123.8 18.1 123.9 18.1 124 18.2C124.1 18.3 124.2 18.3 124.3 18.4C124.4 18.5 124.4 18.6 124.4 18.7H125.1C125.1 18.5 125 18.3 124.9 18.1C124.8 17.9 124.6 17.8 124.4 17.7C124.2 17.6 123.9 17.5 123.6 17.5C123.4 17.5 123.2 17.5 123 17.6C122.8 17.7 122.7 17.7 122.5 17.8L122.2 18.1C122.1 18.2 122.1 18.4 122.1 18.5C122.1 18.7 122.1 18.8 122.2 18.9L122.5 19.2C122.6 19.3 122.8 19.4 122.9 19.5C123.1 19.6 123.2 19.6 123.4 19.7C123.6 19.8 123.7 19.8 123.8 19.9C123.9 19.9 124 20 124.1 20.1C124.2 20.2 124.2 20.2 124.2 20.3V20.5C124.2 20.6 124.2 20.7 124.1 20.8C124 20.8 123.9 20.9 123.7 20.9H123.4C123.3 20.9 123.2 20.8 123.1 20.8L122.9 20.6C122.9 20.5 122.8 20.4 122.8 20.3H122.1C122.1 20.5 122.1 20.7 122.2 20.9C122.3 21.1 122.4 21.2 122.6 21.3C122.8 21.4 122.9 21.5 123.1 21.5C123.3 21.6 123.5 21.6 123.7 21.6C123.9 21.6 124.1 21.6 124.3 21.5C124.5 21.4 124.6 21.4 124.8 21.3L125.1 21C125.2 20.9 125.2 20.7 125.2 20.5C125.2 20.3 125.2 20.2 125.1 20.1ZM112.6 15H102.8C102.2 15 101.8 15.5 101.8 16V22.9C101.7 23.4 102.2 23.9 102.8 23.9H112.6C113.2 23.9 113.6 23.4 113.6 22.9V16C113.6 15.3 113.1 15 112.6 15Z" fill="white"/>
<path d="M141.4 18.5C141.3 18.2 141.2 18.1 141 17.9C140.8 17.7 140.7 17.6 140.4 17.5C140.2 17.4 139.9 17.4 139.7 17.4H138.5V21.2H139.7C140 21.2 140.2 21.2 140.4 21.1C140.6 21 140.8 20.9 141 20.7C141.2 20.5 141.3 20.3 141.4 20.1C141.5 19.9 141.5 19.6 141.5 19.3V19.1C141.5 19 141.5 18.8 141.4 18.5ZM140.9 19.5C140.9 19.8 140.9 20 140.8 20.2C140.7 20.4 140.6 20.6 140.4 20.7C140.2 20.8 140 20.9 139.8 20.9H139.3V18.1H139.8C140 18.1 140.1 18.1 140.3 18.2C140.4 18.3 140.6 18.3 140.6 18.5C140.7 18.6 140.8 18.7 140.8 18.9C140.8 19 140.9 19.2 140.9 19.5Z" fill="white"/>
<path d="M133.4 21.3H135.1V20.8H133.4V17.4H132.7V21.2H133.2H133.4V21.3Z" fill="white"/>
<path d="M120.2 18.5C120.1 18.2 120 18.1 119.8 17.9C119.6 17.7 119.5 17.6 119.2 17.5C119 17.4 118.7 17.4 118.5 17.4H117.3V21.2H118.5C118.8 21.2 119 21.2 119.2 21.1C119.4 21 119.6 20.9 119.8 20.7C120 20.5 120.1 20.3 120.2 20.1C120.3 19.9 120.3 19.6 120.3 19.3V19.1C120.3 19 120.3 18.8 120.2 18.5ZM119.6 19.5C119.6 19.8 119.6 20 119.5 20.2C119.4 20.4 119.3 20.6 119.1 20.7C118.9 20.8 118.7 20.9 118.5 20.9H118.1V18.1H118.6C118.8 18.1 118.9 18.1 119.1 18.2C119.2 18.3 119.4 18.3 119.4 18.5C119.5 18.6 119.6 18.7 119.6 18.9C119.5 19 119.6 19.2 119.6 19.5Z" fill="white"/>
<path d="M132 19.8C131.9 19.7 131.8 19.5 131.7 19.5C131.6 19.4 131.5 19.4 131.4 19.4H131.6C131.8 19.3 131.9 19.2 131.9 19.1C132 19 132 18.8 132 18.6C132 18.4 132 18.3 131.9 18.1L131.6 17.8C131.5 17.7 131.4 17.6 131.2 17.6C131 17.6 130.8 17.5 130.6 17.5H129.3V21.3H130V21.2H130.8C131.1 21.2 131.3 21.2 131.5 21.1C131.7 21 131.9 20.9 132 20.7C132.1 20.5 132.2 20.3 132.2 20.1C132.2 19.9 132.1 20 132 19.8ZM130.1 18H130.7C130.9 18 131 18 131.1 18.1C131.2 18.1 131.3 18.2 131.3 18.3C131.4 18.4 131.4 18.5 131.4 18.6C131.4 18.7 131.4 18.8 131.3 18.9L131.1 19.1C131 19.1 130.9 19.2 130.7 19.2H130.1V18ZM131.3 20.4C131.2 20.5 131.2 20.6 131.1 20.6C131 20.7 130.9 20.7 130.7 20.7H129.9V19.5H130.7C130.9 19.5 131 19.5 131.1 19.6C131.2 19.7 131.3 19.7 131.3 19.8C131.3 19.9 131.4 20 131.4 20.1C131.4 20.2 131.4 20.3 131.3 20.4ZM127.3 17.5H126.6L125.2 21.3H125.9L126.4 20.4H127.8L128.1 21.3H128.8L127.3 17.5ZM126.5 19.9L127.1 18.2L127.7 19.8H126.5V19.9Z" fill="white"/>
<path d="M60.1729 33.6H14.5849C13.6526 33.6 13 34.5734 13 35.6686V88.6009C13 89.8177 13.7458 90.6695 14.5849 90.6695H60.0797C61.0119 90.6695 61.6645 89.696 61.6645 88.6009V35.6686C61.7578 34.5734 61.1052 33.6 60.1729 33.6Z" fill="#8796A1"/>
<path d="M33.8101 56.5692C32.6389 56.5692 31.6628 57.547 31.5652 58.8181C31.5652 59.9914 32.5413 60.9692 33.8101 61.067C34.9814 61.067 35.9574 60.0892 36.055 58.8181C35.9574 57.547 34.9814 56.5692 33.8101 56.5692ZM33.8101 56.5692C32.6389 56.5692 31.6628 57.547 31.5652 58.8181C31.5652 59.9914 32.5413 60.9692 33.8101 61.067C34.9814 61.067 35.9574 60.0892 36.055 58.8181C35.9574 57.547 34.9814 56.5692 33.8101 56.5692ZM33.8101 56.5692C32.6389 56.5692 31.6628 57.547 31.5652 58.8181C31.5652 59.9914 32.5413 60.9692 33.8101 61.067C34.9814 61.067 35.9574 60.0892 36.055 58.8181C35.9574 57.547 34.9814 56.5692 33.8101 56.5692ZM33.8101 56.5692C32.6389 56.5692 31.6628 57.547 31.5652 58.8181C31.5652 59.9914 32.5413 60.9692 33.8101 61.067C34.9814 61.067 35.9574 60.0892 36.055 58.8181C35.9574 57.547 34.9814 56.5692 33.8101 56.5692ZM33.8101 56.5692C32.6389 56.5692 31.6628 57.547 31.5652 58.8181C31.5652 59.9914 32.5413 60.9692 33.8101 61.067C34.9814 61.067 35.9574 60.0892 36.055 58.8181C35.9574 57.547 34.9814 56.5692 33.8101 56.5692ZM33.8101 56.5692C32.6389 56.5692 31.6628 57.547 31.5652 58.8181C31.5652 59.9914 32.5413 60.9692 33.8101 61.067C34.9814 61.067 35.9574 60.0892 36.055 58.8181C35.9574 57.547 34.9814 56.5692 33.8101 56.5692ZM33.8101 56.5692C32.6389 56.5692 31.6628 57.547 31.5652 58.8181C31.5652 59.9914 32.5413 60.9692 33.8101 61.067C34.9814 61.067 35.9574 60.0892 36.055 58.8181C35.9574 57.547 34.9814 56.5692 33.8101 56.5692ZM51.7693 51.4847H23.4641C22.6832 51.4847 22 52.1692 22 52.9514V72.0181C22 72.4092 22.1952 72.8003 22.3904 72.9959V73.0936H22.488C22.7808 73.387 23.0736 73.4847 23.5617 73.4847H51.9645C52.3549 73.4847 52.7453 73.2892 52.9406 73.0936H53.0382V72.9959C53.331 72.7025 53.4286 72.4092 53.4286 72.0181V52.9514C53.2334 52.0714 52.5501 51.4847 51.7693 51.4847ZM52.3549 70.5514V70.4536L43.6681 58.2314C42.9849 57.2536 41.4232 57.2536 40.74 58.2314L34.591 66.9336L39.1784 71.5292C39.3736 71.7247 39.3736 71.9203 39.1784 72.1159C39.0807 72.2136 38.9831 72.2136 38.8855 72.2136C38.7879 72.2136 38.6903 72.2136 38.5927 72.1159L31.1748 64.6847C30.4916 64.0003 29.3203 64.0003 28.6371 64.6847L22.5856 70.8447V52.8536C22.5856 52.5603 22.7808 52.267 23.1712 52.267H51.6717C51.9645 52.267 52.2573 52.5603 52.2573 52.8536V70.4536V70.5514H52.3549ZM33.8101 56.5692C32.6389 56.5692 31.6628 57.547 31.5652 58.8181C31.5652 59.9914 32.5413 60.9692 33.8101 61.067C34.9814 61.067 35.9574 60.0892 36.055 58.8181C35.9574 57.547 34.9814 56.5692 33.8101 56.5692ZM33.8101 56.5692C32.6389 56.5692 31.6628 57.547 31.5652 58.8181C31.5652 59.9914 32.5413 60.9692 33.8101 61.067C34.9814 61.067 35.9574 60.0892 36.055 58.8181C35.9574 57.547 34.9814 56.5692 33.8101 56.5692ZM33.8101 56.5692C32.6389 56.5692 31.6628 57.547 31.5652 58.8181C31.5652 59.9914 32.5413 60.9692 33.8101 61.067C34.9814 61.067 35.9574 60.0892 36.055 58.8181C35.9574 57.547 34.9814 56.5692 33.8101 56.5692ZM33.8101 56.5692C32.6389 56.5692 31.6628 57.547 31.5652 58.8181C31.5652 59.9914 32.5413 60.9692 33.8101 61.067C34.9814 61.067 35.9574 60.0892 36.055 58.8181C35.9574 57.547 34.9814 56.5692 33.8101 56.5692ZM33.8101 56.5692C32.6389 56.5692 31.6628 57.547 31.5652 58.8181C31.5652 59.9914 32.5413 60.9692 33.8101 61.067C34.9814 61.067 35.9574 60.0892 36.055 58.8181C35.9574 57.547 34.9814 56.5692 33.8101 56.5692ZM33.8101 56.5692C32.6389 56.5692 31.6628 57.547 31.5652 58.8181C31.5652 59.9914 32.5413 60.9692 33.8101 61.067C34.9814 61.067 35.9574 60.0892 36.055 58.8181C35.9574 57.547 34.9814 56.5692 33.8101 56.5692ZM33.8101 56.5692C32.6389 56.5692 31.6628 57.547 31.5652 58.8181C31.5652 59.9914 32.5413 60.9692 33.8101 61.067C34.9814 61.067 35.9574 60.0892 36.055 58.8181C35.9574 57.547 34.9814 56.5692 33.8101 56.5692ZM33.8101 56.5692C32.6389 56.5692 31.6628 57.547 31.5652 58.8181C31.5652 59.9914 32.5413 60.9692 33.8101 61.067C34.9814 61.067 35.9574 60.0892 36.055 58.8181C35.9574 57.547 34.9814 56.5692 33.8101 56.5692Z" fill="white"/>
<path d="M115.754 33.6H70.2582C69.3259 33.6 68.6733 34.1186 68.6733 34.741V64.0966C68.6733 64.719 69.4192 65.2377 70.2582 65.2377H115.754C116.686 65.2377 117.339 64.719 117.339 64.0966V34.741C117.432 34.1186 116.686 33.6 115.754 33.6Z" fill="#8796A1"/>
<path d="M91.5624 44.9647C90.7428 44.9647 90.0142 45.6076 90.0142 46.526C90.0142 47.3525 90.6517 47.9953 91.5624 47.9953C92.382 47.9953 93.0195 47.3525 93.0195 46.526C93.0195 45.6076 92.382 44.9647 91.5624 44.9647ZM91.5624 44.9647C90.7428 44.9647 90.0142 45.6076 90.0142 46.526C90.0142 47.3525 90.6517 47.9953 91.5624 47.9953C92.382 47.9953 93.0195 47.3525 93.0195 46.526C93.0195 45.6076 92.382 44.9647 91.5624 44.9647ZM91.5624 44.9647C90.7428 44.9647 90.0142 45.6076 90.0142 46.526C90.0142 47.3525 90.6517 47.9953 91.5624 47.9953C92.382 47.9953 93.0195 47.3525 93.0195 46.526C93.0195 45.6076 92.382 44.9647 91.5624 44.9647ZM91.5624 44.9647C90.7428 44.9647 90.0142 45.6076 90.0142 46.526C90.0142 47.3525 90.6517 47.9953 91.5624 47.9953C92.382 47.9953 93.0195 47.3525 93.0195 46.526C93.0195 45.6076 92.382 44.9647 91.5624 44.9647ZM91.5624 44.9647C90.7428 44.9647 90.0142 45.6076 90.0142 46.526C90.0142 47.3525 90.6517 47.9953 91.5624 47.9953C92.382 47.9953 93.0195 47.3525 93.0195 46.526C93.0195 45.6076 92.382 44.9647 91.5624 44.9647ZM91.5624 44.9647C90.7428 44.9647 90.0142 45.6076 90.0142 46.526C90.0142 47.3525 90.6517 47.9953 91.5624 47.9953C92.382 47.9953 93.0195 47.3525 93.0195 46.526C93.0195 45.6076 92.382 44.9647 91.5624 44.9647ZM91.5624 44.9647C90.7428 44.9647 90.0142 45.6076 90.0142 46.526C90.0142 47.3525 90.6517 47.9953 91.5624 47.9953C92.382 47.9953 93.0195 47.3525 93.0195 46.526C93.0195 45.6076 92.382 44.9647 91.5624 44.9647ZM91.5624 44.9647C90.7428 44.9647 90.0142 45.6076 90.0142 46.526C90.0142 47.3525 90.6517 47.9953 91.5624 47.9953C92.382 47.9953 93.0195 47.3525 93.0195 46.526C93.0195 45.6076 92.382 44.9647 91.5624 44.9647ZM91.5624 44.9647C90.7428 44.9647 90.0142 45.6076 90.0142 46.526C90.0142 47.3525 90.6517 47.9953 91.5624 47.9953C92.382 47.9953 93.0195 47.3525 93.0195 46.526C93.0195 45.6076 92.382 44.9647 91.5624 44.9647ZM103.128 42.1178H84.277C83.7306 42.1178 83.2753 42.4851 83.2753 43.0362V55.8014C83.2753 56.077 83.3663 56.2606 83.5485 56.4443C83.7306 56.628 83.9127 56.7198 84.1859 56.7198H103.037C103.31 56.7198 103.492 56.628 103.674 56.4443C103.856 56.2606 103.948 56.077 103.948 55.8014V43.0362C104.039 42.4851 103.674 42.1178 103.128 42.1178ZM103.583 54.8831L97.7549 46.6178C97.2996 45.9749 96.2068 45.9749 95.7515 46.6178L91.7445 52.4035L94.8408 55.5259C94.9319 55.6178 94.9319 55.8014 94.8408 55.8933C94.7497 55.9851 94.6587 55.9851 94.6587 55.9851C94.5676 55.9851 94.4765 55.9851 94.4765 55.8933L89.5589 50.9341C89.1036 50.4749 88.284 50.4749 87.9197 50.9341L84.0038 54.9749V43.0362C84.0038 42.8525 84.1859 42.6688 84.3681 42.6688H103.31C103.492 42.6688 103.674 42.8525 103.674 43.0362V54.8831H103.583ZM91.5624 44.9647C90.7428 44.9647 90.0142 45.6076 90.0142 46.526C90.0142 47.3525 90.6517 47.9953 91.5624 47.9953C92.382 47.9953 93.0195 47.3525 93.0195 46.526C93.0195 45.6076 92.382 44.9647 91.5624 44.9647ZM91.5624 44.9647C90.7428 44.9647 90.0142 45.6076 90.0142 46.526C90.0142 47.3525 90.6517 47.9953 91.5624 47.9953C92.382 47.9953 93.0195 47.3525 93.0195 46.526C93.0195 45.6076 92.382 44.9647 91.5624 44.9647ZM91.5624 44.9647C90.7428 44.9647 90.0142 45.6076 90.0142 46.526C90.0142 47.3525 90.6517 47.9953 91.5624 47.9953C92.382 47.9953 93.0195 47.3525 93.0195 46.526C93.0195 45.6076 92.382 44.9647 91.5624 44.9647ZM91.5624 44.9647C90.7428 44.9647 90.0142 45.6076 90.0142 46.526C90.0142 47.3525 90.6517 47.9953 91.5624 47.9953C92.382 47.9953 93.0195 47.3525 93.0195 46.526C93.0195 45.6076 92.382 44.9647 91.5624 44.9647ZM91.5624 44.9647C90.7428 44.9647 90.0142 45.6076 90.0142 46.526C90.0142 47.3525 90.6517 47.9953 91.5624 47.9953C92.382 47.9953 93.0195 47.3525 93.0195 46.526C93.0195 45.6076 92.382 44.9647 91.5624 44.9647ZM91.5624 44.9647C90.7428 44.9647 90.0142 45.6076 90.0142 46.526C90.0142 47.3525 90.6517 47.9953 91.5624 47.9953C92.382 47.9953 93.0195 47.3525 93.0195 46.526C93.0195 45.6076 92.382 44.9647 91.5624 44.9647ZM91.5624 44.9647C90.7428 44.9647 90.0142 45.6076 90.0142 46.526C90.0142 47.3525 90.6517 47.9953 91.5624 47.9953C92.382 47.9953 93.0195 47.3525 93.0195 46.526C93.0195 45.6076 92.382 44.9647 91.5624 44.9647ZM91.5624 44.9647C90.7428 44.9647 90.0142 45.6076 90.0142 46.526C90.0142 47.3525 90.6517 47.9953 91.5624 47.9953C92.382 47.9953 93.0195 47.3525 93.0195 46.526C93.0195 45.6076 92.382 44.9647 91.5624 44.9647ZM91.5624 44.9647C90.7428 44.9647 90.0142 45.6076 90.0142 46.526C90.0142 47.3525 90.6517 47.9953 91.5624 47.9953C92.382 47.9953 93.0195 47.3525 93.0195 46.526C93.0195 45.6076 92.382 44.9647 91.5624 44.9647ZM91.5624 44.9647C90.7428 44.9647 90.0142 45.6076 90.0142 46.526C90.0142 47.3525 90.6517 47.9953 91.5624 47.9953C92.382 47.9953 93.0195 47.3525 93.0195 46.526C93.0195 45.6076 92.382 44.9647 91.5624 44.9647Z" fill="white"/>
<path d="M171.5 33.6H125.931C124.999 33.6 124.347 34.3644 124.347 35.1288V74.6603C124.347 75.534 125.092 76.1892 125.931 76.1892H171.407C172.339 76.1892 172.991 75.4248 172.991 74.6603V35.1288C173.178 34.2552 172.432 33.6 171.5 33.6Z" fill="#8796A1"/>
<path d="M146.152 49.143C145.139 49.143 144.218 49.9935 144.218 51.1275C144.218 52.167 145.046 53.112 146.152 53.112C147.165 53.112 148.086 52.2615 148.086 51.1275C147.994 49.9935 147.165 49.143 146.152 49.143ZM146.152 49.143C145.139 49.143 144.218 49.9935 144.218 51.1275C144.218 52.167 145.046 53.112 146.152 53.112C147.165 53.112 148.086 52.2615 148.086 51.1275C147.994 49.9935 147.165 49.143 146.152 49.143ZM146.152 49.143C145.139 49.143 144.218 49.9935 144.218 51.1275C144.218 52.167 145.046 53.112 146.152 53.112C147.165 53.112 148.086 52.2615 148.086 51.1275C147.994 49.9935 147.165 49.143 146.152 49.143ZM146.152 49.143C145.139 49.143 144.218 49.9935 144.218 51.1275C144.218 52.167 145.046 53.112 146.152 53.112C147.165 53.112 148.086 52.2615 148.086 51.1275C147.994 49.9935 147.165 49.143 146.152 49.143ZM146.152 49.143C145.139 49.143 144.218 49.9935 144.218 51.1275C144.218 52.167 145.046 53.112 146.152 53.112C147.165 53.112 148.086 52.2615 148.086 51.1275C147.994 49.9935 147.165 49.143 146.152 49.143ZM146.152 49.143C145.139 49.143 144.218 49.9935 144.218 51.1275C144.218 52.167 145.046 53.112 146.152 53.112C147.165 53.112 148.086 52.2615 148.086 51.1275C147.994 49.9935 147.165 49.143 146.152 49.143ZM146.152 49.143C145.139 49.143 144.218 49.9935 144.218 51.1275C144.218 52.167 145.046 53.112 146.152 53.112C147.165 53.112 148.086 52.2615 148.086 51.1275C147.994 49.9935 147.165 49.143 146.152 49.143ZM161.073 45.363H137.218C136.481 45.363 136.02 45.93 136.02 46.5915V63.0345C136.02 63.318 136.112 63.696 136.296 63.885V63.9795H136.389C136.573 64.1685 136.941 64.263 137.218 64.263H161.073C161.349 64.263 161.718 64.1685 161.902 63.9795H161.994V63.885C162.178 63.696 162.27 63.318 162.27 63.0345V46.5915C162.27 45.8355 161.718 45.363 161.073 45.363ZM161.441 61.806V61.617L154.257 51.1275C153.612 50.277 152.323 50.277 151.77 51.1275L146.612 58.593L150.481 62.562C150.573 62.6565 150.573 62.8455 150.481 63.129C150.389 63.2235 150.389 63.2235 150.204 63.2235C150.112 63.2235 150.02 63.129 149.928 63.129L143.757 56.7975C143.204 56.2305 142.191 56.2305 141.639 56.7975L136.573 62.0895V46.5915C136.573 46.308 136.849 46.0245 137.125 46.0245H160.981C161.257 46.0245 161.533 46.308 161.533 46.5915V61.617L161.625 61.806H161.441ZM146.152 49.143C145.139 49.143 144.218 49.9935 144.218 51.1275C144.218 52.167 145.046 53.112 146.152 53.112C147.165 53.112 148.086 52.2615 148.086 51.1275C147.994 49.9935 147.165 49.143 146.152 49.143ZM146.152 49.143C145.139 49.143 144.218 49.9935 144.218 51.1275C144.218 52.167 145.046 53.112 146.152 53.112C147.165 53.112 148.086 52.2615 148.086 51.1275C147.994 49.9935 147.165 49.143 146.152 49.143ZM146.152 49.143C145.139 49.143 144.218 49.9935 144.218 51.1275C144.218 52.167 145.046 53.112 146.152 53.112C147.165 53.112 148.086 52.2615 148.086 51.1275C147.994 49.9935 147.165 49.143 146.152 49.143ZM146.152 49.143C145.139 49.143 144.218 49.9935 144.218 51.1275C144.218 52.167 145.046 53.112 146.152 53.112C147.165 53.112 148.086 52.2615 148.086 51.1275C147.994 49.9935 147.165 49.143 146.152 49.143ZM146.152 49.143C145.139 49.143 144.218 49.9935 144.218 51.1275C144.218 52.167 145.046 53.112 146.152 53.112C147.165 53.112 148.086 52.2615 148.086 51.1275C147.994 49.9935 147.165 49.143 146.152 49.143ZM146.152 49.143C145.139 49.143 144.218 49.9935 144.218 51.1275C144.218 52.167 145.046 53.112 146.152 53.112C147.165 53.112 148.086 52.2615 148.086 51.1275C147.994 49.9935 147.165 49.143 146.152 49.143Z" fill="white"/>
<path d="M16.6 113.87L14.5 107.47H13L16 115.77H17.3L20.3 107.47H18.8L16.6 113.87Z" fill="#16222D"/>
<path d="M25.7 114.17V111.47H25.6C25.6 110.77 25.4 110.27 24.9 109.97C24.4 109.57 23.9 109.37 23.2 109.37C22.7 109.37 22.3 109.47 22 109.67C21.6 109.87 21.3 110.07 21.1 110.37C20.9 110.67 20.8 110.97 20.8 111.37H22.1C22.1 111.17 22.2 110.87 22.4 110.77C22.6 110.67 22.9 110.57 23.2 110.57C23.6 110.57 23.9 110.67 24 110.87C24.1 111.07 24.3 111.37 24.3 111.67V112.07H23.4C22.5 112.07 21.8 112.27 21.3 112.57C20.8 112.87 20.5 113.47 20.5 114.07C20.5 114.57 20.7 115.07 21.1 115.27C21.5 115.57 22 115.77 22.6 115.77C23.2 115.77 23.8 115.57 24.2 115.07C24.2 115.37 24.3 115.57 24.4 115.67H25.8V115.47C25.7 115.17 25.7 114.67 25.7 114.17ZM24.2 113.97C24.1 114.17 23.9 114.37 23.6 114.57C23.3 114.77 23.1 114.77 22.8 114.77C22.5 114.77 22.3 114.67 22.1 114.57C21.9 114.47 21.8 114.17 21.8 113.87C21.8 113.57 21.9 113.27 22.2 113.07C22.5 112.87 22.9 112.77 23.4 112.77H24.2V113.97Z" fill="#16222D"/>
<path d="M31.1 109.47V115.57H32.4V109.47H31.1ZM32.5 107.37C32.4 107.27 32.1 107.17 31.9 107.17C31.6 107.17 31.4 107.27 31.3 107.37C31.2 107.47 31.1 107.67 31.1 107.87C31.1 108.07 31.2 108.27 31.3 108.37C31.4 108.47 31.6 108.57 31.9 108.57C32.2 108.57 32.4 108.47 32.5 108.37C32.6 108.27 32.7 108.07 32.7 107.87C32.7 107.67 32.6 107.47 32.5 107.37ZM29.7 109.37C29.1 109.47 28.7 109.77 28.4 110.27V109.47H27.1V115.57H28.4V111.47C28.6 110.97 29.1 110.67 29.6 110.67H30.2V109.47C30.1 109.37 29.9 109.37 29.7 109.37Z" fill="#16222D"/>
<path d="M38.9 114.17V111.47H38.8C38.8 110.77 38.6 110.27 38.1 109.97C37.6 109.57 37.1 109.37 36.4 109.37C35.9 109.37 35.5 109.47 35.2 109.67C34.8 109.87 34.5 110.07 34.3 110.37C34.1 110.67 34 110.97 34 111.37H35.3C35.3 111.17 35.4 110.87 35.6 110.77C35.8 110.67 36.1 110.57 36.4 110.57C36.8 110.57 37.1 110.67 37.2 110.87C37.3 111.07 37.5 111.37 37.5 111.67V112.07H36.6C35.7 112.07 35 112.27 34.5 112.57C34 112.87 33.7 113.47 33.7 114.07C33.7 114.57 33.9 115.07 34.3 115.27C34.7 115.57 35.2 115.77 35.8 115.77C36.4 115.77 37 115.57 37.4 115.07C37.4 115.37 37.5 115.57 37.6 115.67H39V115.47C38.9 115.17 38.9 114.67 38.9 114.17ZM37.5 113.97C37.4 114.17 37.2 114.37 36.9 114.57C36.6 114.77 36.4 114.77 36.1 114.77C35.8 114.77 35.6 114.67 35.4 114.57C35.2 114.47 35.1 114.17 35.1 113.87C35.1 113.57 35.2 113.27 35.5 113.07C35.8 112.87 36.2 112.77 36.7 112.77H37.5V113.97Z" fill="#16222D"/>
<path d="M45 110.17C44.5 109.57 44 109.37 43.3 109.37C42.7 109.37 42.1 109.57 41.7 110.07V106.87H40.4V115.47H41.6L41.7 114.77C42.1 115.27 42.7 115.57 43.3 115.57C44.1 115.57 44.6 115.27 45 114.67C45.4 114.07 45.7 113.37 45.7 112.47C45.6 111.57 45.4 110.77 45 110.17ZM44.4 112.67C44.3 113.37 44.2 113.77 43.9 114.07C43.6 114.37 43.3 114.57 42.9 114.57C42.3 114.57 41.8 114.27 41.7 113.77V111.27C41.9 110.77 42.4 110.47 42.9 110.47C43.4 110.47 43.7 110.67 44 110.97C44.3 111.27 44.4 111.87 44.4 112.37V112.67Z" fill="#16222D"/>
<path d="M69 109.47V115.57H70.3V109.47H69ZM66.6 107.37L65.4 113.57L63.9 107.37H62.7L61.2 113.57L60 107.37H58.6L60.5 115.57H61.8L63.4 109.57L64.9 115.57H66.3L68.2 107.37H66.6ZM54.6 112.57C54.6 111.57 54.4 110.87 53.9 110.37C53.4 109.87 52.9 109.37 52.2 109.37C51.7 109.37 51.2 109.47 50.8 109.77C50.3 110.07 50 110.47 49.8 110.87C49.6 111.37 49.4 111.97 49.4 112.47V112.67C49.4 113.57 49.7 114.27 50.2 114.87C50.7 115.47 51.4 115.77 52.3 115.77C52.8 115.77 53.3 115.67 53.6 115.47C54 115.27 54.4 114.97 54.6 114.57L53.8 113.87C53.4 114.37 52.9 114.67 52.3 114.67C51.8 114.67 51.4 114.47 51.2 114.17C50.9 113.87 50.7 113.47 50.7 112.97H54.6V112.57ZM50.9 111.97C51 111.47 51.1 111.07 51.4 110.87C51.7 110.67 52 110.47 52.3 110.47C52.7 110.47 53 110.57 53.2 110.87C53.4 111.17 53.5 111.47 53.6 111.97H50.9ZM46.9 106.97V115.57H48.2V106.97H46.9Z" fill="#16222D"/>
<path d="M69.6 107.17C69.3 107.17 69.1 107.27 69 107.37C68.9 107.47 68.8 107.67 68.8 107.87C68.8 108.07 68.9 108.27 69 108.37C69.1 108.47 69.3 108.57 69.6 108.57C69.9 108.57 70.1001 108.47 70.2001 108.37C70.3001 108.27 70.4 108.07 70.4 107.87C70.4 107.67 70.3001 107.47 70.2001 107.37C70.1001 107.27 69.9 107.17 69.6 107.17Z" fill="#16222D"/>
<path d="M81.1 110.57V109.47H80V108.07H78.7V109.47H77.7V110.57H78.7V114.07C78.7 115.27 79.2 115.77 80.2 115.77C80.5 115.77 80.8 115.77 81.1 115.67V114.67C80.9 114.67 80.8 114.77 80.6 114.77C80.4 114.67 80.2 114.67 80.1 114.47C80 114.37 80 114.17 80 113.97V110.57H81.1ZM75.6 106.97V110.07H75.5C75.1 109.57 74.5 109.37 74 109.37C73.2 109.37 72.6 109.67 72.3 110.27C71.9 110.87 71.6 111.57 71.6 112.57C71.6 113.57 71.8 114.27 72.3 114.87C72.8 115.47 73.4 115.77 74 115.77C74.6 115.77 75.2 115.47 75.6 114.97L75.7 115.67H76.9V107.07H75.6V106.97ZM75.5 113.87C75.2 114.37 74.8 114.67 74.3 114.67C73.8 114.67 73.5 114.47 73.2 114.17C72.9 113.87 72.8 113.27 72.8 112.77C72.8 112.07 72.9 111.57 73.2 111.27C73.5 110.97 73.8 110.77 74.3 110.77C74.9 110.77 75.3 111.07 75.5 111.57V113.87Z" fill="#16222D"/>
<path d="M85.2 109.47C84.5 109.47 83.9999 109.77 83.4999 110.27V106.97H82.2V115.57H83.4999V111.27C83.7999 110.77 84.2 110.47 84.7 110.47C85.1 110.47 85.2999 110.57 85.4999 110.77C85.6999 110.97 85.7999 111.27 85.7999 111.67V115.57H87.0999V111.67C87.1999 110.17 86.5 109.47 85.2 109.47Z" fill="#16222D"/>
<path d="M102 105.67H143.2C144.3 105.67 145.1 106.57 145.1 107.57V116.37C145.1 117.47 144.2 118.27 143.2 118.27H102C100.9 118.27 100.1 117.37 100.1 116.37V107.57C100.1 106.57 100.9 105.67 102 105.67Z" fill="#00C263"/>
<path d="M142.2 107.57H132.4C131.8 107.57 131.4 108.07 131.4 108.57V115.47C131.4 116.07 131.9 116.47 132.4 116.47H142.2C142.8 116.47 143.2 115.97 143.2 115.47V108.57C143.3 108.07 142.8 107.57 142.2 107.57ZM117.5 112.37C117.4 112.27 117.3 112.07 117.2 112.07C117.1 111.97 117 111.97 116.9 111.97H117.1C117.2 111.87 117.3 111.67 117.4 111.57C117.5 111.47 117.5 111.27 117.5 111.07C117.5 110.87 117.5 110.77 117.4 110.57L117.1 110.27C117 110.17 116.9 110.07 116.7 110.07C116.5 110.07 116.3 109.97 116.1 109.97H114.8V113.77H116.2C116.5 113.77 116.7 113.77 116.9 113.67C117.1 113.57 117.3 113.47 117.4 113.27C117.5 113.07 117.6 112.87 117.6 112.67C117.6 112.47 117.6 112.57 117.5 112.37ZM115.6 110.67H116.2C116.4 110.67 116.5 110.67 116.6 110.77C116.7 110.77 116.8 110.87 116.8 110.97C116.9 111.07 116.9 111.17 116.9 111.27C116.9 111.37 116.9 111.47 116.8 111.57L116.6 111.77C116.5 111.77 116.4 111.87 116.2 111.87H115.6V110.67ZM116.9 113.17C116.8 113.27 116.8 113.37 116.7 113.37C116.6 113.47 116.5 113.47 116.3 113.47H115.5V112.27H116.3C116.5 112.27 116.6 112.27 116.7 112.37C116.8 112.47 116.9 112.47 116.9 112.57C117 112.77 117 112.87 117 112.97C117 112.97 117 113.07 116.9 113.17ZM109.9 110.17V112.87L108.2 110.17H107.5V113.97H108.2V111.17L109.8 113.97H110.5V110.17H109.9ZM119 113.47V110.17H118.3V113.97H120.7V113.47H119ZM112.8 110.17H112.3L110.9 113.97H111.6L111.9 113.07H113.3L113.6 113.97H114.3L112.8 110.17ZM112.1 112.57L112.7 110.97L113.3 112.57H112.1ZM106.9 110.67V110.17H104.4V113.97H106.9V113.47H105.1V112.27H106.6V111.67H105.1V110.57H106.9V110.67ZM127 111.27C126.9 111.07 126.8 110.87 126.6 110.67C126.4 110.47 126.3 110.37 126 110.27C125.8 110.17 125.5 110.17 125.3 110.17H124.1V113.97H125.3C125.6 113.97 125.8 113.97 126 113.87C126.2 113.77 126.4 113.67 126.6 113.47C126.8 113.27 126.9 113.07 127 112.87C127.1 112.67 127.1 112.37 127.1 112.07V111.87C127.1 111.77 127.1 111.57 127 111.27ZM126.5 112.17C126.5 112.47 126.5 112.67 126.4 112.87C126.3 113.07 126.2 113.27 126 113.37C125.8 113.47 125.6 113.57 125.4 113.57H124.9V110.77H125.4C125.6 110.67 125.7 110.77 125.9 110.77C126 110.87 126.2 110.87 126.2 111.07C126.3 111.17 126.4 111.27 126.4 111.47C126.4 111.67 126.5 111.87 126.5 112.07V112.17ZM123.7 110.67V110.17H121.2V113.97H123.7V113.47H121.9V112.27H123.5V111.67H121.9V110.57H123.7V110.67Z" fill="white"/>
<path d="M60.1729 126.27H14.5849C13.6526 126.27 13 127.243 13 128.338V181.27C13 182.487 13.7458 183.339 14.5849 183.339H60.0797C61.0119 183.339 61.6645 182.366 61.6645 181.27V128.338C61.7578 127.243 61.1052 126.27 60.1729 126.27Z" fill="#8796A1"/>
<path d="M33.8101 149.354C32.6389 149.354 31.6628 150.332 31.5652 151.603C31.5652 152.776 32.5413 153.754 33.8101 153.852C34.9814 153.852 35.9574 152.874 36.055 151.603C35.9574 150.332 34.9814 149.354 33.8101 149.354ZM33.8101 149.354C32.6389 149.354 31.6628 150.332 31.5652 151.603C31.5652 152.776 32.5413 153.754 33.8101 153.852C34.9814 153.852 35.9574 152.874 36.055 151.603C35.9574 150.332 34.9814 149.354 33.8101 149.354ZM33.8101 149.354C32.6389 149.354 31.6628 150.332 31.5652 151.603C31.5652 152.776 32.5413 153.754 33.8101 153.852C34.9814 153.852 35.9574 152.874 36.055 151.603C35.9574 150.332 34.9814 149.354 33.8101 149.354ZM33.8101 149.354C32.6389 149.354 31.6628 150.332 31.5652 151.603C31.5652 152.776 32.5413 153.754 33.8101 153.852C34.9814 153.852 35.9574 152.874 36.055 151.603C35.9574 150.332 34.9814 149.354 33.8101 149.354ZM33.8101 149.354C32.6389 149.354 31.6628 150.332 31.5652 151.603C31.5652 152.776 32.5413 153.754 33.8101 153.852C34.9814 153.852 35.9574 152.874 36.055 151.603C35.9574 150.332 34.9814 149.354 33.8101 149.354ZM33.8101 149.354C32.6389 149.354 31.6628 150.332 31.5652 151.603C31.5652 152.776 32.5413 153.754 33.8101 153.852C34.9814 153.852 35.9574 152.874 36.055 151.603C35.9574 150.332 34.9814 149.354 33.8101 149.354ZM33.8101 149.354C32.6389 149.354 31.6628 150.332 31.5652 151.603C31.5652 152.776 32.5413 153.754 33.8101 153.852C34.9814 153.852 35.9574 152.874 36.055 151.603C35.9574 150.332 34.9814 149.354 33.8101 149.354ZM51.7693 144.27H23.4641C22.6832 144.27 22 144.954 22 145.736V164.803C22 165.194 22.1952 165.585 22.3904 165.781V165.878H22.488C22.7808 166.172 23.0736 166.27 23.5617 166.27H51.9645C52.3549 166.27 52.7453 166.074 52.9406 165.878H53.0382V165.781C53.331 165.487 53.4286 165.194 53.4286 164.803V145.736C53.2334 144.856 52.5501 144.27 51.7693 144.27ZM52.3549 163.336V163.238L43.6681 151.016C42.9849 150.038 41.4232 150.038 40.74 151.016L34.591 159.718L39.1784 164.314C39.3736 164.51 39.3736 164.705 39.1784 164.901C39.0807 164.998 38.9831 164.998 38.8855 164.998C38.7879 164.998 38.6903 164.998 38.5927 164.901L31.1748 157.47C30.4916 156.785 29.3203 156.785 28.6371 157.47L22.5856 163.63V145.638C22.5856 145.345 22.7808 145.052 23.1712 145.052H51.6717C51.9645 145.052 52.2573 145.345 52.2573 145.638V163.238V163.336H52.3549ZM33.8101 149.354C32.6389 149.354 31.6628 150.332 31.5652 151.603C31.5652 152.776 32.5413 153.754 33.8101 153.852C34.9814 153.852 35.9574 152.874 36.055 151.603C35.9574 150.332 34.9814 149.354 33.8101 149.354ZM33.8101 149.354C32.6389 149.354 31.6628 150.332 31.5652 151.603C31.5652 152.776 32.5413 153.754 33.8101 153.852C34.9814 153.852 35.9574 152.874 36.055 151.603C35.9574 150.332 34.9814 149.354 33.8101 149.354ZM33.8101 149.354C32.6389 149.354 31.6628 150.332 31.5652 151.603C31.5652 152.776 32.5413 153.754 33.8101 153.852C34.9814 153.852 35.9574 152.874 36.055 151.603C35.9574 150.332 34.9814 149.354 33.8101 149.354ZM33.8101 149.354C32.6389 149.354 31.6628 150.332 31.5652 151.603C31.5652 152.776 32.5413 153.754 33.8101 153.852C34.9814 153.852 35.9574 152.874 36.055 151.603C35.9574 150.332 34.9814 149.354 33.8101 149.354ZM33.8101 149.354C32.6389 149.354 31.6628 150.332 31.5652 151.603C31.5652 152.776 32.5413 153.754 33.8101 153.852C34.9814 153.852 35.9574 152.874 36.055 151.603C35.9574 150.332 34.9814 149.354 33.8101 149.354ZM33.8101 149.354C32.6389 149.354 31.6628 150.332 31.5652 151.603C31.5652 152.776 32.5413 153.754 33.8101 153.852C34.9814 153.852 35.9574 152.874 36.055 151.603C35.9574 150.332 34.9814 149.354 33.8101 149.354ZM33.8101 149.354C32.6389 149.354 31.6628 150.332 31.5652 151.603C31.5652 152.776 32.5413 153.754 33.8101 153.852C34.9814 153.852 35.9574 152.874 36.055 151.603C35.9574 150.332 34.9814 149.354 33.8101 149.354ZM33.8101 149.354C32.6389 149.354 31.6628 150.332 31.5652 151.603C31.5652 152.776 32.5413 153.754 33.8101 153.852C34.9814 153.852 35.9574 152.874 36.055 151.603C35.9574 150.332 34.9814 149.354 33.8101 149.354Z" fill="white"/>
<path d="M152.6 126.27H70.5323C68.8505 126.27 67.6733 127.205 67.6733 128.328V181.281C67.6733 182.404 69.0187 183.34 70.5323 183.34H152.6C154.282 183.34 155.459 182.404 155.459 181.281V128.328C155.627 127.205 154.282 126.27 152.6 126.27Z" fill="#8796A1"/>
<path d="M107.949 146.405C106.47 146.405 105.156 147.565 105.156 149.221C105.156 150.712 106.306 151.872 107.949 151.872C109.427 151.872 110.577 150.712 110.577 149.221C110.577 147.565 109.427 146.405 107.949 146.405ZM107.949 146.405C106.47 146.405 105.156 147.565 105.156 149.221C105.156 150.712 106.306 151.872 107.949 151.872C109.427 151.872 110.577 150.712 110.577 149.221C110.577 147.565 109.427 146.405 107.949 146.405ZM107.949 146.405C106.47 146.405 105.156 147.565 105.156 149.221C105.156 150.712 106.306 151.872 107.949 151.872C109.427 151.872 110.577 150.712 110.577 149.221C110.577 147.565 109.427 146.405 107.949 146.405ZM107.949 146.405C106.47 146.405 105.156 147.565 105.156 149.221C105.156 150.712 106.306 151.872 107.949 151.872C109.427 151.872 110.577 150.712 110.577 149.221C110.577 147.565 109.427 146.405 107.949 146.405ZM107.949 146.405C106.47 146.405 105.156 147.565 105.156 149.221C105.156 150.712 106.306 151.872 107.949 151.872C109.427 151.872 110.577 150.712 110.577 149.221C110.577 147.565 109.427 146.405 107.949 146.405ZM107.949 146.405C106.47 146.405 105.156 147.565 105.156 149.221C105.156 150.712 106.306 151.872 107.949 151.872C109.427 151.872 110.577 150.712 110.577 149.221C110.577 147.565 109.427 146.405 107.949 146.405ZM107.949 146.405C106.47 146.405 105.156 147.565 105.156 149.221C105.156 150.712 106.306 151.872 107.949 151.872C109.427 151.872 110.577 150.712 110.577 149.221C110.577 147.565 109.427 146.405 107.949 146.405ZM107.949 146.405C106.47 146.405 105.156 147.565 105.156 149.221C105.156 150.712 106.306 151.872 107.949 151.872C109.427 151.872 110.577 150.712 110.577 149.221C110.577 147.565 109.427 146.405 107.949 146.405ZM107.949 146.405C106.47 146.405 105.156 147.565 105.156 149.221C105.156 150.712 106.306 151.872 107.949 151.872C109.427 151.872 110.577 150.712 110.577 149.221C110.577 147.565 109.427 146.405 107.949 146.405ZM128.811 141.27H94.807C93.8214 141.27 93 141.932 93 142.926V165.953C93 166.45 93.1643 166.781 93.4928 167.113C93.8214 167.444 94.1499 167.61 94.6427 167.61H128.647C129.14 167.61 129.468 167.444 129.797 167.113C130.126 166.781 130.29 166.45 130.29 165.953V142.926C130.454 141.932 129.797 141.27 128.811 141.27ZM129.633 164.296L119.119 149.387C118.298 148.227 116.327 148.227 115.505 149.387L108.277 159.823L113.863 165.456C114.027 165.622 114.027 165.953 113.863 166.119C113.698 166.284 113.534 166.284 113.534 166.284C113.37 166.284 113.206 166.284 113.206 166.119L104.335 157.173C103.513 156.345 102.035 156.345 101.378 157.173L94.3142 164.462V142.926C94.3142 142.595 94.6427 142.263 94.9713 142.263H129.14C129.468 142.263 129.797 142.595 129.797 142.926V164.296H129.633ZM107.949 146.405C106.47 146.405 105.156 147.565 105.156 149.221C105.156 150.712 106.306 151.872 107.949 151.872C109.427 151.872 110.577 150.712 110.577 149.221C110.577 147.565 109.427 146.405 107.949 146.405ZM107.949 146.405C106.47 146.405 105.156 147.565 105.156 149.221C105.156 150.712 106.306 151.872 107.949 151.872C109.427 151.872 110.577 150.712 110.577 149.221C110.577 147.565 109.427 146.405 107.949 146.405ZM107.949 146.405C106.47 146.405 105.156 147.565 105.156 149.221C105.156 150.712 106.306 151.872 107.949 151.872C109.427 151.872 110.577 150.712 110.577 149.221C110.577 147.565 109.427 146.405 107.949 146.405ZM107.949 146.405C106.47 146.405 105.156 147.565 105.156 149.221C105.156 150.712 106.306 151.872 107.949 151.872C109.427 151.872 110.577 150.712 110.577 149.221C110.577 147.565 109.427 146.405 107.949 146.405ZM107.949 146.405C106.47 146.405 105.156 147.565 105.156 149.221C105.156 150.712 106.306 151.872 107.949 151.872C109.427 151.872 110.577 150.712 110.577 149.221C110.577 147.565 109.427 146.405 107.949 146.405ZM107.949 146.405C106.47 146.405 105.156 147.565 105.156 149.221C105.156 150.712 106.306 151.872 107.949 151.872C109.427 151.872 110.577 150.712 110.577 149.221C110.577 147.565 109.427 146.405 107.949 146.405ZM107.949 146.405C106.47 146.405 105.156 147.565 105.156 149.221C105.156 150.712 106.306 151.872 107.949 151.872C109.427 151.872 110.577 150.712 110.577 149.221C110.577 147.565 109.427 146.405 107.949 146.405ZM107.949 146.405C106.47 146.405 105.156 147.565 105.156 149.221C105.156 150.712 106.306 151.872 107.949 151.872C109.427 151.872 110.577 150.712 110.577 149.221C110.577 147.565 109.427 146.405 107.949 146.405ZM107.949 146.405C106.47 146.405 105.156 147.565 105.156 149.221C105.156 150.712 106.306 151.872 107.949 151.872C109.427 151.872 110.577 150.712 110.577 149.221C110.577 147.565 109.427 146.405 107.949 146.405ZM107.949 146.405C106.47 146.405 105.156 147.565 105.156 149.221C105.156 150.712 106.306 151.872 107.949 151.872C109.427 151.872 110.577 150.712 110.577 149.221C110.577 147.565 109.427 146.405 107.949 146.405Z" fill="white"/>
<path d="M224.66 126.27H163.596C162.348 126.27 161.473 127.294 161.473 128.318V181.291C161.473 182.462 162.472 183.34 163.596 183.34H224.535C225.784 183.34 226.658 182.315 226.658 181.291V128.318C226.907 127.148 225.908 126.27 224.66 126.27Z" fill="#8796A1"/>
<path d="M190.339 148.07C189.052 148.07 187.883 149.15 187.883 150.59C187.883 151.91 188.935 153.11 190.339 153.11C191.625 153.11 192.795 152.03 192.795 150.59C192.678 149.15 191.625 148.07 190.339 148.07ZM190.339 148.07C189.052 148.07 187.883 149.15 187.883 150.59C187.883 151.91 188.935 153.11 190.339 153.11C191.625 153.11 192.795 152.03 192.795 150.59C192.678 149.15 191.625 148.07 190.339 148.07ZM190.339 148.07C189.052 148.07 187.883 149.15 187.883 150.59C187.883 151.91 188.935 153.11 190.339 153.11C191.625 153.11 192.795 152.03 192.795 150.59C192.678 149.15 191.625 148.07 190.339 148.07ZM190.339 148.07C189.052 148.07 187.883 149.15 187.883 150.59C187.883 151.91 188.935 153.11 190.339 153.11C191.625 153.11 192.795 152.03 192.795 150.59C192.678 149.15 191.625 148.07 190.339 148.07ZM190.339 148.07C189.052 148.07 187.883 149.15 187.883 150.59C187.883 151.91 188.935 153.11 190.339 153.11C191.625 153.11 192.795 152.03 192.795 150.59C192.678 149.15 191.625 148.07 190.339 148.07ZM190.339 148.07C189.052 148.07 187.883 149.15 187.883 150.59C187.883 151.91 188.935 153.11 190.339 153.11C191.625 153.11 192.795 152.03 192.795 150.59C192.678 149.15 191.625 148.07 190.339 148.07ZM190.339 148.07C189.052 148.07 187.883 149.15 187.883 150.59C187.883 151.91 188.935 153.11 190.339 153.11C191.625 153.11 192.795 152.03 192.795 150.59C192.678 149.15 191.625 148.07 190.339 148.07ZM209.286 143.27H178.994C178.058 143.27 177.473 143.99 177.473 144.83V165.71C177.473 166.07 177.59 166.55 177.824 166.79V166.91H177.941C178.175 167.15 178.643 167.27 178.994 167.27H209.286C209.637 167.27 210.105 167.15 210.339 166.91H210.456V166.79C210.69 166.55 210.807 166.07 210.807 165.71V144.83C210.807 143.87 210.105 143.27 209.286 143.27ZM209.754 164.15V163.91L200.631 150.59C199.813 149.51 198.175 149.51 197.473 150.59L190.924 160.07L195.836 165.11C195.953 165.23 195.953 165.47 195.836 165.83C195.719 165.95 195.719 165.95 195.485 165.95C195.368 165.95 195.251 165.83 195.134 165.83L187.298 157.79C186.596 157.07 185.31 157.07 184.608 157.79L178.175 164.51V144.83C178.175 144.47 178.526 144.11 178.877 144.11H209.169C209.52 144.11 209.871 144.47 209.871 144.83V163.91L209.988 164.15H209.754ZM190.339 148.07C189.052 148.07 187.883 149.15 187.883 150.59C187.883 151.91 188.935 153.11 190.339 153.11C191.625 153.11 192.795 152.03 192.795 150.59C192.678 149.15 191.625 148.07 190.339 148.07ZM190.339 148.07C189.052 148.07 187.883 149.15 187.883 150.59C187.883 151.91 188.935 153.11 190.339 153.11C191.625 153.11 192.795 152.03 192.795 150.59C192.678 149.15 191.625 148.07 190.339 148.07ZM190.339 148.07C189.052 148.07 187.883 149.15 187.883 150.59C187.883 151.91 188.935 153.11 190.339 153.11C191.625 153.11 192.795 152.03 192.795 150.59C192.678 149.15 191.625 148.07 190.339 148.07ZM190.339 148.07C189.052 148.07 187.883 149.15 187.883 150.59C187.883 151.91 188.935 153.11 190.339 153.11C191.625 153.11 192.795 152.03 192.795 150.59C192.678 149.15 191.625 148.07 190.339 148.07ZM190.339 148.07C189.052 148.07 187.883 149.15 187.883 150.59C187.883 151.91 188.935 153.11 190.339 153.11C191.625 153.11 192.795 152.03 192.795 150.59C192.678 149.15 191.625 148.07 190.339 148.07ZM190.339 148.07C189.052 148.07 187.883 149.15 187.883 150.59C187.883 151.91 188.935 153.11 190.339 153.11C191.625 153.11 192.795 152.03 192.795 150.59C192.678 149.15 191.625 148.07 190.339 148.07Z" fill="white"/>
</svg>
